<svg width="24" height="24" viewBox="0 0 24 24" fill="none" xmlns="http://www.w3.org/2000/svg">
<path d="M9.66667 5C7.09723 5 5 7.09723 5 9.66667C5 12.2361 7.09723 14.3333 9.66667 14.3333C10.832 14.3333 11.8967 13.8987 12.7161 13.1875L13 13.4714V14.3333L17 18.3333L18.3333 17L14.3333 13H13.4714L13.1875 12.7161C13.8987 11.8967 14.3333 10.832 14.3333 9.66667C14.3333 7.09723 12.2361 5 9.66667 5ZM9.66667 6.33333C11.5155 6.33333 13 7.81782 13 9.66667C13 11.5155 11.5155 13 9.66667 13C7.81782 13 6.33333 11.5155 6.33333 9.66667C6.33333 7.81782 7.81782 6.33333 9.66667 6.33333Z" fill="#888B95"/>
</svg>
